<svg width="26" height="30" viewBox="0 0 26 30" fill="none" xmlns="http://www.w3.org/2000/svg">
<path d="M8.85484 30C4.38994 29.9743 0.696655 20.8599 0.696655 16.2182C0.696655 8.63592 6.38464 6.97596 8.57675 6.97596C9.56464 6.97596 10.6195 7.36391 11.5499 7.70721C12.2005 7.94668 12.8734 8.19389 13.2477 8.19389C13.4717 8.19389 13.9995 7.98359 14.4656 7.79908C15.4595 7.4034 16.6963 6.91162 18.1366 6.91162C18.1391 6.91162 18.1426 6.91162 18.1451 6.91162C19.2205 6.91162 22.4813 7.14764 24.4417 10.0916L24.9009 10.7817L24.24 11.2804C23.2959 11.9928 21.5732 13.2922 21.5732 15.8663C21.5732 18.915 23.5241 20.0875 24.4614 20.6514C24.8751 20.9003 25.3034 21.1569 25.3034 21.7183C25.3034 22.0848 22.3783 29.9545 18.1305 29.9545C17.0911 29.9545 16.3564 29.6421 15.7084 29.3666C15.0527 29.0876 14.487 28.8474 13.5523 28.8474C13.0785 28.8474 12.4794 29.0714 11.8451 29.3091C10.9783 29.6326 9.99724 30 8.88402 30H8.85484Z" fill="white"/>
<path d="M18.5866 0C18.6973 3.98883 15.8446 6.75609 12.9953 6.58254C12.5258 3.39932 15.8443 0 18.5866 0Z" fill="white"/>
</svg>
